HIERARCHY
ROOT Hips
{
	OFFSET 0.00000 0.00000 0.00000
	CHANNELS 6 Xposition Yposition Zposition Zrotation Yrotation Xrotation 
	JOINT LHipJoint
	{
		OFFSET 0 0 0
		CHANNELS 3 Zrotation Yrotation Xrotation
		JOINT LeftUpLeg
		{
			OFFSET 1.67711 -1.75950 0.70433
			CHANNELS 3 Zrotation Yrotation Xrotation
			JOINT LeftLeg
			{
				OFFSET 2.44937 -6.72958 0.00000
				CHANNELS 3 Zrotation Yrotation Xrotation
				JOINT LeftFoot
				{
					OFFSET 2.61292 -7.17894 0.00000
					CHANNELS 3 Zrotation Yrotation Xrotation
					JOINT LeftToeBase
					{
						OFFSET 0.17811 -0.48914 1.82515
						CHANNELS 3 Zrotation Yrotation Xrotation
						End Site
						{
							OFFSET -0.00112 -0.00292 0.95564
						}
					}
				}
			}
		}
	}
	JOINT RHipJoint
	{
		OFFSET 0 0 0
		CHANNELS 3 Zrotation Yrotation Xrotation
		JOINT RightUpLeg
		{
			OFFSET -1.61866 -1.75949 0.70433
			CHANNELS 3 Zrotation Yrotation Xrotation
			JOINT RightLeg
			{
				OFFSET -2.36243 -6.49072 0.00000
				CHANNELS 3 Zrotation Yrotation Xrotation
				JOINT RightFoot
				{
					OFFSET -2.64336 -7.26259 0.00000
					CHANNELS 3 Zrotation Yrotation Xrotation
					JOINT RightToeBase
					{
						OFFSET -0.18169 -0.49935 1.90192
						CHANNELS 3 Zrotation Yrotation Xrotation
						End Site
						{
							OFFSET 0.00039 0.00229 0.99264
						}
					}
				}
			}
		}
	}
	JOINT LowerBack
	{
		OFFSET 0 0 0
		CHANNELS 3 Zrotation Yrotation Xrotation
		JOINT Spine
		{
			OFFSET -0.01926 2.19655 -0.12599
			CHANNELS 3 Zrotation Yrotation Xrotation
			JOINT Spine1
			{
				OFFSET 0.01663 2.20532 -0.00079
				CHANNELS 3 Zrotation Yrotation Xrotation
				JOINT Neck
				{
					OFFSET 0 0 0
					CHANNELS 3 Zrotation Yrotation Xrotation
					JOINT Neck1
					{
						OFFSET 0.10604 1.75174 0.14226
						CHANNELS 3 Zrotation Yrotation Xrotation
						JOINT Head
						{
							OFFSET -0.09898 1.68516 -0.48414
							CHANNELS 3 Zrotation Yrotation Xrotation
							End Site
							{
								OFFSET -0.02896 1.78316 -0.18415
							}
						}
					}
				}
				JOINT LeftShoulder
				{
					OFFSET 0 0 0
					CHANNELS 3 Zrotation Yrotation Xrotation
					JOINT LeftArm
					{
						OFFSET 3.30655 1.16959 -0.30867
						CHANNELS 3 Zrotation Yrotation Xrotation
						JOINT LeftForeArm
						{
							OFFSET 5.35289 -0.00000 -0.00000
							CHANNELS 3 Zrotation Yrotation Xrotation
							JOINT LeftHand
							{
								OFFSET 3.27727 -0.00000 -0.00000
								CHANNELS 3 Zrotation Yrotation Xrotation
								JOINT LeftFingerBase
								{
									OFFSET 0 0 0
									CHANNELS 3 Zrotation Yrotation Xrotation
									JOINT LeftHandIndex1
									{
										OFFSET 0.54443 0.00002 0.00009
										CHANNELS 3 Zrotation Yrotation Xrotation
										End Site
										{
											OFFSET 0.43891 -0.00000 -0.00000
										}
									}
								}
								JOINT LThumb
								{
									OFFSET 0 0 0
									CHANNELS 3 Zrotation Yrotation Xrotation
									End Site
									{
										OFFSET 0.44564 0.00002 0.44570
									}
								}
							}
						}
					}
				}
				JOINT RightShoulder
				{
					OFFSET 0 0 0
					CHANNELS 3 Zrotation Yrotation Xrotation
					JOINT RightArm
					{
						OFFSET -3.27172 0.97864 -0.36131
						CHANNELS 3 Zrotation Yrotation Xrotation
						JOINT RightForeArm
						{
							OFFSET -5.52076 -0.00317 -0.00590
							CHANNELS 3 Zrotation Yrotation Xrotation
							JOINT RightHand
							{
								OFFSET -3.32364 -0.00000 -0.00000
								CHANNELS 3 Zrotation Yrotation Xrotation
								JOINT RightFingerBase
								{
									OFFSET 0 0 0
									CHANNELS 3 Zrotation Yrotation Xrotation
									JOINT RightHandIndex1
									{
										OFFSET -0.73223 -0.00000 -0.00000
										CHANNELS 3 Zrotation Yrotation Xrotation
										End Site
										{
											OFFSET -0.59035 -0.00000 -0.00000
										}
									}
								}
								JOINT RThumb
								{
									OFFSET 0 0 0
									CHANNELS 3 Zrotation Yrotation Xrotation
									End Site
									{
										OFFSET -0.59936 -0.00000 0.59936
									}
								}
							}
						}
					}
				}
			}
		}
	}
}
MOTION
Frames: 16
Frame Time: 0.0606061
0.00 0.00 0.00 0 0 0 0 0 0 -21 0 0 0 0 0 0 0 0 0 0 0 0 0 0 21 0 0 0 0 0 0 0 0 0 0 0 0 0 0 0 0 0 0 0 0 0 0 -16 0 0 21 0 0 11 0 0 0 -8 0 0 0 0 0 0 0 0 0 0 0 0 0 0 0 0 0 0 0 0 8 0 0 0 0 0 0 0 0 0 0 0 0 0 0 0 0 0
0.00 0.00 0.00 -5.1121 -4.5886 10.0536 0.0000 0.0000 0.0000 -16.9642 -8.7598 -30.6922 4.6616 12.9922 39.3394 1.2654 -8.8820 -20.1659 0.0116 0.6940 1.9072 0.0000 0.0000 0.0000 26.0907 -2.9890 7.7815 -0.6593 -5.1932 14.4603 -1.0413 -2.0315 18.7141 -0.4300 4.2084 -11.6638 2.7770 1.8129 4.1410 -1.2942 2.5219 -0.3545 -3.0443 1.2115 -2.5077 10.3945 14.3766 -16.9794 -12.0396 23.3179 34.0366 -1.9569 9.3224 18.5829 0.0000 -0.0000 0.0000 -85.1616 -8.4566 -4.8800 15.1398 -24.3405 -3.2833 -0.0000 0.0000 -2.5107 15.7679 24.2628 6.6185 -7.1250 0.0000 -0.0000 -14.4139 54.4940 -3.4158 0.0000 -0.0000 0.0000 88.5941 -7.7850 28.5438 -19.0909 29.5315 -5.0756 0.0000 -0.0000 -3.6826 -11.6138 20.9783 -4.2082 7.1250 -0.0000 -0.0000 10.8021 -8.9049 9.1687
0.00 0.00 0.00 -4.2432 -4.0690 10.1790 0.0000 0.0000 0.0000 -19.0525 -7.2536 -27.1881 3.8881 12.0100 35.7675 1.2277 -7.4838 -19.8006 0.0490 -1.4289 -3.9299 0.0000 0.0000 0.0000 25.2021 -1.9299 -1.4781 -3.0285 -10.7410 31.4113 -1.1807 -7.0182 19.4090 -0.1822 2.7494 -7.5817 1.1965 0.9016 4.0842 -1.8722 1.2090 -0.6628 -2.6787 0.5668 -2.9072 10.8761 15.1849 -15.8242 -12.3750 24.6707 34.0169 -1.8901 9.9229 18.6846 -0.0000 0.0000 0.0000 -84.0583 -8.2974 -5.6180 14.8284 -23.9064 -3.1561 -0.0000 0.0000 -2.2058 15.9078 24.6088 6.7683 -7.1250 0.0000 -0.0000 -14.4443 54.8606 -3.5533 -0.0000 0.0000 0.0000 89.0002 -7.9706 28.3171 -18.5080 28.8027 -4.7915 0.0000 -0.0000 -1.8670 -11.4215 20.8833 -4.1191 7.1250 -0.0000 -0.0000 10.9222 -9.0190 9.2492
0.00 0.00 0.00 -3.8254 -3.6916 9.5644 0.0000 0.0000 0.0000 -20.1757 -5.2681 -23.8780 3.2850 11.1427 32.7626 0.9631 -8.3782 -17.6155 0.1068 -2.1073 -5.8024 0.0000 0.0000 0.0000 24.4404 -2.9310 -9.9404 -6.6456 -15.0260 47.5207 -0.7106 -7.8738 15.1871 -0.4449 4.2796 -11.8647 0.0898 0.2171 4.4918 -1.9228 0.2363 -0.4652 -2.0469 0.1003 -2.9896 11.8074 15.4729 -13.6626 -14.0796 25.3528 32.5461 -2.7170 10.3155 18.0289 0.0000 -0.0000 0.0000 -83.4104 -8.8503 -5.8677 13.7381 -22.3591 -2.7277 -0.0000 0.0000 -0.1549 16.8608 24.2603 7.0984 -7.1250 0.0000 -0.0000 -13.3092 54.7009 -3.2142 0.0000 -0.0000 0.0000 88.8849 -7.8649 27.6516 -18.3067 28.5481 -4.6949 0.0000 -0.0000 -2.6937 -13.4493 21.2293 -4.9491 7.1250 -0.0000 -0.0000 9.6453 -8.4559 8.2429
0.00 0.00 0.00 -2.6824 -4.8636 8.8637 0.0000 0.0000 0.0000 -21.8249 -2.8077 -20.5966 2.5599 9.9461 28.8022 0.5187 -8.5655 -13.2946 0.0096 -0.6316 -1.7355 0.0000 0.0000 0.0000 22.1549 -2.5117 -19.0394 -11.8398 -18.3221 65.4802 -0.7298 -4.5886 15.2420 -0.1207 -2.2397 6.1685 -1.6679 0.2793 5.7624 -2.3584 0.1718 -0.2868 -1.5128 0.0940 -3.5272 10.9904 15.7315 -15.2637 -13.1039 25.8792 34.0980 -1.9394 10.3236 19.0274 0.0000 -0.0000 0.0000 -82.7555 -10.0996 -5.8705 12.7606 -20.9354 -2.3671 -0.0000 -0.0000 2.3933 16.3269 23.7594 6.7309 -7.1250 0.0000 -0.0000 -13.6109 54.1037 -3.0893 0.0000 -0.0000 0.0000 88.9710 -8.3763 26.9666 -19.2494 29.7274 -5.1540 0.0000 -0.0000 -3.8820 -14.4854 21.2561 -5.3507 7.1250 -0.0000 -0.0000 8.9893 -8.3091 7.6937
0.00 0.00 0.00 -1.8558 -5.3108 7.7473 0.0000 0.0000 0.0000 -22.9266 -0.1430 -16.1109 1.6452 8.0842 22.9700 0.0895 -7.8728 -7.2435 0.1571 -2.5535 -7.0381 0.0000 0.0000 0.0000 20.4709 -3.6189 -27.9764 -17.5453 -19.8549 82.8062 -0.6427 -4.7170 14.2811 -0.2580 3.2680 -9.0258 -3.4515 -0.0074 6.7868 -2.1669 -0.3757 -0.1754 -0.2664 -0.1389 -3.9845 12.1120 15.8413 -12.2349 -15.0055 26.4926 33.0759 -2.9867 10.7512 18.5202 -0.0000 0.0000 0.0000 -83.2038 -9.8795 -4.5382 12.9390 -21.1978 -2.4312 -0.0000 -0.0000 3.9125 15.4148 27.4111 7.2342 -7.1250 0.0000 -0.0000 -16.5010 57.4874 -5.1394 -0.0000 0.0000 0.0000 88.3873 -8.5188 26.3967 -18.6530 28.9853 -4.8616 0.0000 -0.0000 -2.8641 -14.5502 21.0694 -5.3308 7.1250 -0.0000 -0.0000 8.9407 -8.4897 7.6186
0.00 0.00 0.00 -0.6397 -5.1658 6.2871 0.0000 0.0000 0.0000 -24.5559 2.7850 -7.0443 0.4315 4.2157 11.6842 -0.0327 -3.5241 2.8423 0.3002 -3.5231 -9.7387 0.0000 0.0000 0.0000 17.3216 -5.9663 -40.8625 -23.9781 -19.6163 101.7030 -0.9636 0.7376 18.8317 -0.9565 6.2279 -17.4472 -4.2704 -0.1466 7.0045 -2.4096 -0.5896 1.1560 -0.0362 -0.2643 -2.7163 10.0735 15.9499 -15.1715 -12.9497 26.7125 35.1784 -1.5480 10.4787 19.6046 0.0000 0.0000 0.0000 -84.3235 -11.5563 -2.9102 13.6467 -22.2274 -2.6930 -0.0000 -0.0000 3.2712 14.1658 24.4283 5.9591 -7.1250 0.0000 -0.0000 -16.1019 54.3524 -3.7747 0.0000 0.0000 0.0000 88.5778 -7.7041 23.1208 -17.9297 28.0670 -4.5161 0.0000 0.0000 0.0318 -13.7613 21.9123 -5.2221 7.1250 -0.0000 -0.0000 9.4728 -7.7345 8.2280
0.00 0.00 0.00 0.4286 -0.1725 5.2031 0.0000 0.0000 0.0000 -24.9218 2.1643 -0.4065 0.6313 5.0840 14.1484 -0.0379 -3.8711 3.2738 1.3944 -7.4706 -21.1174 0.0000 0.0000 0.0000 19.3253 -2.3667 -45.7686 -13.7118 -19.0243 71.3225 -0.0501 -3.0555 4.2216 -0.4702 4.3981 -12.1993 -5.9508 -0.6534 6.6262 -1.4576 -1.3185 1.3226 1.9426 -0.6220 -2.2478 11.7016 14.7593 -13.0503 -14.0263 24.2114 32.4094 -3.0326 9.9261 17.5481 0.0000 -0.0000 0.0000 -87.2882 -9.2861 0.6559 15.6778 -25.0819 -3.5083 -0.0000 0.0000 -0.7879 13.4045 25.3193 5.8194 -7.1250 0.0000 -0.0000 -17.3368 55.0664 -4.3826 0.0000 -0.0000 0.0000 88.7475 -10.4359 15.8169 -15.5459 24.9011 -3.4525 0.0000 0.0000 3.3983 -12.5511 21.1473 -4.5920 7.1250 -0.0000 -0.0000 10.2120 -8.6374 8.7057
0.00 0.00 0.00 0.6969 0.5146 5.6323 0.0000 0.0000 0.0000 -24.7340 2.0832 -0.6111 0.8434 5.8579 16.3727 -0.0898 -5.3536 2.6966 1.0177 -6.4182 -18.0028 0.0000 0.0000 0.0000 20.3682 -1.7966 -42.2461 -8.8414 -16.7045 55.5398 0.0472 -4.1994 0.2485 -0.7658 5.5881 -15.5940 -5.8727 -0.6724 6.5439 -1.7001 -1.3572 0.9354 1.6538 -0.6258 -2.6085 11.6093 14.9508 -13.8536 -13.1585 24.4146 33.5070 -2.5508 9.9874 18.1764 -0.0000 0.0000 0.0000 -86.3634 -9.3872 -1.0605 14.4117 -23.3202 -2.9892 -0.0000 -0.0000 1.0282 13.8769 23.8734 5.7097 -7.1250 0.0000 -0.0000 -16.1083 53.7607 -3.5408 -0.0000 0.0000 0.0000 89.6550 -10.4052 13.7491 -14.8120 23.8836 -3.1494 0.0000 0.0000 4.4776 -11.9788 21.6063 -4.4673 7.1250 -0.0000 -0.0000 10.5857 -8.2415 9.1202
0.00 0.00 0.00 1.2527 0.9895 6.2374 0.0000 0.0000 0.0000 -25.0585 1.9674 -0.6961 1.0352 6.4714 18.1584 -0.1291 -6.4135 1.4464 0.9807 -6.3037 -17.6683 0.0000 0.0000 0.0000 21.0206 -1.6084 -37.1877 -4.1915 -12.4109 37.2017 0.0502 -4.1785 -0.1349 -0.9632 6.2489 -17.5083 -6.0815 -0.6883 5.5926 -1.7400 -1.3311 0.6767 1.7123 -0.6137 -2.3422 11.6085 14.7958 -12.7277 -13.8049 24.4541 33.1327 -2.9037 10.0331 17.8502 0.0000 -0.0000 0.0000 -86.1676 -8.5554 -2.9086 13.5283 -22.0563 -2.6484 -0.0000 -0.0000 2.1125 14.5454 24.2949 6.0933 -7.1250 0.0000 -0.0000 -15.6551 54.2942 -3.6435 0.0000 -0.0000 0.0000 89.7971 -10.5380 13.4368 -14.6671 23.6803 -3.0910 0.0000 0.0000 4.1460 -11.7788 20.9321 -4.2605 7.1250 -0.0000 -0.0000 10.6966 -8.9338 9.0695
0.00 0.00 0.00 1.5356 0.8954 6.8998 0.0000 0.0000 0.0000 -25.1645 2.3511 -0.8451 1.2703 7.1435 20.1412 -0.1386 -6.9012 0.3254 0.7879 -5.6663 -15.8193 0.0000 0.0000 0.0000 21.8373 -1.4033 -30.9786 -1.1619 -6.8431 19.2515 0.0003 -5.3364 3.7283 -1.1874 6.9151 -19.4641 -5.8003 -0.5288 4.3539 -1.7455 -1.0104 0.6049 1.5108 -0.4707 -1.7507 10.8296 15.0929 -14.0475 -13.0900 25.0710 34.2434 -2.2356 10.1190 18.6201 0.0000 0.0000 0.0000 -86.0306 -8.4037 -4.9011 12.7928 -20.9829 -2.3786 -0.0000 -0.0000 2.7707 15.7775 26.4764 7.1796 -7.1250 0.0000 -0.0000 -15.5745 56.6590 -4.5271 0.0000 0.0000 0.0000 89.8106 -10.9603 14.0370 -15.3387 24.6158 -3.3657 0.0000 0.0000 3.0438 -11.4119 21.0926 -4.1548 7.1250 -0.0000 -0.0000 10.9322 -8.8120 9.3040
0.00 0.00 0.00 2.6700 1.5236 7.2790 0.0000 0.0000 0.0000 -23.0749 2.9037 -1.6055 3.8179 11.9140 35.4286 0.0835 -8.8975 14.1107 0.1170 -2.2050 -6.0726 0.0000 0.0000 0.0000 22.3183 1.5551 -17.1957 -0.4040 -4.0807 11.3039 0.0600 -4.7304 -3.7289 -0.0000 -0.0002 0.0006 -0.8949 0.1446 1.3518 -0.6585 0.1707 -0.2733 -0.1762 0.0888 -1.0380 10.7242 15.5403 -11.6024 -13.7964 26.7016 35.0676 -2.2942 10.8697 18.9902 -0.0000 0.0000 0.0000 -88.2998 -0.2583 -10.4841 12.4586 -20.4889 -2.2603 -0.0000 -0.0000 3.1278 15.2582 22.3382 5.9192 -7.1250 0.0000 -0.0000 -14.0286 52.5069 -2.6339 -0.0000 0.0000 0.0000 87.1086 -10.0917 16.2540 -16.1285 25.6946 -3.7015 0.0000 0.0000 1.0737 -12.5220 21.2834 -4.6091 7.1250 -0.0000 -0.0000 10.2341 -8.5046 8.7526
0.00 0.00 0.00 1.0840 2.8976 6.5590 0.0000 0.0000 0.0000 -20.2126 -0.3309 -8.5475 7.7335 15.9197 51.5971 0.7044 -6.6073 19.6087 0.2150 -2.9852 -8.2375 0.0000 0.0000 0.0000 24.3006 1.0463 -15.7292 -0.7722 -5.6110 15.6597 -0.1071 -3.8149 -8.7677 -0.0059 0.4951 -1.3604 0.9548 0.2357 2.3252 0.6404 0.3459 0.2530 0.1095 0.1700 -1.0423 9.5579 14.8063 -13.9477 -11.6682 24.9677 36.0790 -1.4815 10.0912 19.0759 0.0000 -0.0000 0.0000 -89.1359 0.4971 -9.0165 12.1794 -20.0731 -2.1635 -0.0000 -0.0000 2.3210 12.7457 23.5321 5.1605 -7.1250 0.0000 -0.0000 -17.0520 53.2261 -3.5315 0.0000 -0.0000 0.0000 85.8127 -7.8503 16.5423 -17.1520 27.0577 -4.1562 0.0000 -0.0000 -0.3146 -14.0638 20.9174 -5.1108 7.1250 -0.0000 -0.0000 9.2443 -8.6993 7.8453
0.00 0.00 0.00 -0.6236 4.1684 5.0778 0.0000 0.0000 0.0000 -17.4121 -3.4709 -18.5891 12.8679 18.7340 68.7148 0.1289 -5.9433 11.4000 0.2298 -3.0855 -8.5170 0.0000 0.0000 0.0000 26.8284 -0.1466 -9.8301 -0.6465 -5.1436 14.3187 -0.1835 -4.4758 -10.9870 -0.0067 0.5296 -1.4553 2.4216 0.4084 3.5511 1.2067 0.6610 0.3374 -0.1521 0.3173 -1.6313 10.1431 13.4455 -13.1704 -10.5646 22.3885 37.1846 -1.8271 9.3106 18.9368 -0.0000 -0.0000 0.0000 -88.3969 1.3701 -11.6426 12.1390 -20.0128 -2.1496 -0.0000 -0.0000 5.6633 11.0432 22.6800 4.3035 -7.1250 0.0000 -0.0000 -18.2837 52.1136 -3.2925 -0.0000 -0.0000 0.0000 85.9898 -7.7162 18.7574 -19.6027 30.1607 -5.3303 0.0000 -0.0000 -3.5312 -15.6137 19.0395 -5.2091 7.1250 -0.0000 -0.0000 8.1813 -10.4231 6.6360
0.00 0.00 0.00 -3.2940 -0.6727 4.4039 0.0000 0.0000 0.0000 -17.3799 -2.6996 -36.3810 8.8316 16.6981 55.5060 -0.2080 -8.3768 0.6195 0.2485 -3.2076 -8.8572 0.0000 0.0000 0.0000 28.8885 -1.4055 -9.3770 -2.8571 -10.4601 30.4798 -0.7941 1.9272 -16.2942 -0.1182 2.2169 -6.1055 4.3874 1.2460 4.4636 1.1613 1.8842 0.8758 -1.3699 0.9231 -1.4985 10.3479 13.2247 -12.5135 -12.0737 22.2275 35.4920 -2.6038 9.1825 18.1070 0.0000 -0.0000 0.0000 -88.6031 8.9209 -18.2078 13.6432 -22.2224 -2.6917 -0.0000 -0.0000 0.8558 11.4731 24.5837 4.8265 -7.1250 0.0000 -0.0000 -18.8490 54.0003 -4.2871 0.0000 -0.0000 0.0000 85.1025 -8.5621 21.8844 -25.5856 36.7966 -8.6383 0.0000 -0.0000 -1.8545 -9.4111 19.5874 -3.1804 7.1250 -0.0000 -0.0000 12.1929 -10.4905 10.0044
0.00 0.00 0.00 -2.7867 -3.5946 4.3889 0.0000 0.0000 0.0000 -19.0257 -0.9785 -32.7508 4.7001 13.0379 39.5104 0.0497 -3.9292 7.3556 0.6603 -5.1971 -14.4717 0.0000 0.0000 0.0000 26.9791 -0.7681 -12.1901 -5.0413 -13.4301 41.0007 -0.9993 5.3638 -17.8613 -0.3252 3.6655 -10.1376 3.9254 1.3744 3.5010 0.5848 1.9678 1.1797 -1.6752 0.9865 -0.6382 9.9930 13.6493 -13.7016 -11.4198 22.6740 35.7868 -2.0675 9.2801 18.4541 0.0000 -0.0000 0.0000 -88.1867 13.2553 -19.1950 14.1732 -22.9817 -2.8954 -0.0000 0.0000 -0.6954 8.1390 25.2905 3.4963 -7.1250 0.0000 -0.0000 -22.5048 54.0484 -5.2075 0.0000 -0.0000 0.0000 83.8436 -10.7964 23.0272 -31.3169 41.9957 -12.2813 0.0000 -0.0000 -4.4161 -6.6694 17.8792 -2.0560 7.1250 -0.0000 -0.0000 13.9839 -12.3744 11.0029
